<svg viewBox="0 0 16 16" fill="none" xmlns="http://www.w3.org/2000/svg" id="Linkedin--Streamline-Unicons" height="16" width="16"><desc>Linkedin Streamline Icon: https://streamlinehq.com</desc><path d="M14.6404 0.16013333333333332H1.3596C1.2103333333333333 0.15799999999999997 1.0620666666666665 0.1854 0.9233333333333333 0.24059999999999998 0.7846666666666666 0.2958666666666666 0.6581999999999999 0.37786666666666663 0.5511333333333333 0.4819333333333333 0.4441333333333333 0.5860666666666666 0.3586666666666667 0.7101999999999999 0.29966666666666664 0.8473333333333333c-0.05906666666666666 0.13713333333333333 -0.09046666666666665 0.28459999999999996 -0.09253333333333333 0.4338666666666667v13.4376c0.0020666666666666663 0.14926666666666666 0.033466666666666665 0.2967333333333333 0.09253333333333333 0.4338666666666667s0.14446666666666666 0.26126666666666665 0.2514666666666666 0.3654c0.10706666666666666 0.10413333333333333 0.23353333333333332 0.18613333333333332 0.3722 0.24133333333333332 0.13873333333333332 0.055266666666666665 0.287 0.08259999999999999 0.43626666666666664 0.08046666666666666h13.2808c0.14926666666666666 0.0021333333333333334 0.2975333333333333 -0.0252 0.4362 -0.08046666666666666 0.13879999999999998 -0.0552 0.2652 -0.1372 0.37226666666666663 -0.24133333333333332 0.107 -0.10413333333333333 0.19246666666666667 -0.22833333333333333 0.2514666666666666 -0.3654 0.05906666666666666 -0.13713333333333333 0.09046666666666665 -0.28459999999999996 0.09253333333333333 -0.4338666666666667V1.2812c-0.0020666666666666663 -0.14926666666666666 -0.033466666666666665 -0.29666666666666663 -0.09253333333333333 -0.4338666666666667 -0.059 -0.13713333333333333 -0.14446666666666666 -0.26126666666666665 -0.2514666666666666 -0.3654 -0.10706666666666666 -0.10406666666666665 -0.23346666666666666 -0.18613333333333332 -0.37226666666666663 -0.24133333333333332 -0.13866666666666666 -0.0552 -0.2869333333333333 -0.08259999999999999 -0.4362 -0.08046666666666666ZM4.9346 13.284066666666668h-2.352V6.228199999999999h2.352v7.055866666666667ZM3.7586 5.240333333333333c-0.3243333333333333 0 -0.6354 -0.1288 -0.8647999999999999 -0.35819999999999996 -0.2293333333333333 -0.2293333333333333 -0.35819999999999996 -0.5404 -0.35819999999999996 -0.8647999999999999 0 -0.3243333333333333 0.12886666666666666 -0.6354666666666666 0.35819999999999996 -0.8647999999999999 0.2294 -0.2294 0.5404666666666667 -0.35819999999999996 0.8647999999999999 -0.35819999999999996 0.17226666666666668 -0.019533333333333333 0.3466666666666667 -0.0024666666666666665 0.5118666666666667 0.05006666666666666 0.16519999999999999 0.05253333333333333 0.3174 0.1394 0.44666666666666666 0.25486666666666663 0.12933333333333333 0.11546666666666666 0.23273333333333335 0.25693333333333335 0.3036 0.41513333333333335 0.0708 0.1582 0.10746666666666667 0.3296 0.10746666666666667 0.5029333333333332 0 0.17333333333333334 -0.03666666666666667 0.34473333333333334 -0.10746666666666667 0.5029333333333332 -0.07086666666666666 0.1582 -0.17426666666666668 0.29966666666666664 -0.3036 0.41513333333333335 -0.12926666666666664 0.11546666666666666 -0.28146666666666664 0.2023333333333333 -0.44666666666666666 0.25486666666666663 -0.16519999999999999 0.052599999999999994 -0.33959999999999996 0.06966666666666665 -0.5118666666666667 0.050133333333333335ZM13.417333333333334 13.284066666666668h-2.351933333333333v-3.786666666666666c0 -0.9486 -0.33713333333333334 -1.5679333333333334 -1.1916666666666667 -1.5679333333333334 -0.2644666666666666 0.0019333333333333331 -0.522 0.08486666666666666 -0.7378666666666667 0.23766666666666664s-0.3797333333333333 0.36806666666666665 -0.4694666666666667 0.6168666666666667c-0.061399999999999996 0.18426666666666663 -0.088 0.3783333333333333 -0.0784 0.5722666666666667v3.92H6.235999999999999V6.2203333333333335h2.352v0.9956666666666667c0.2136 -0.37073333333333336 0.5244 -0.6761999999999999 0.8987333333333334 -0.8834 0.3744666666666666 -0.2072 0.7982666666666667 -0.30833333333333335 1.2258666666666667 -0.29259999999999997 1.5679999999999998 0 2.7047333333333334 1.0113333333333332 2.7047333333333334 3.183v4.061066666666666Z" fill="#000000" stroke-width="0.6667"></path></svg>